<svg xmlns="http://www.w3.org/2000/svg" viewBox="0 0 1600 1000" role="img" aria-labelledby="title desc">
  <title id="title">VA-MCP 아키텍처</title>
  <desc id="desc">AI-Native 개발 흐름의 기능 테스트 이후 MCP 보안점검을 추가하고, 엔드포인트 맥락에 맞는 OWASP Top 10 점검 도구만 선택해 실행하는 모듈형 구조</desc>

  <defs>
    <filter id="shadow" x="-20%" y="-20%" width="140%" height="140%">
      <feDropShadow dx="0" dy="5" stdDeviation="8" flood-color="#0f172a" flood-opacity="0.08"/>
    </filter>
    <marker id="arrow-blue" markerWidth="10" markerHeight="10" refX="8" refY="5" orient="auto">
      <path d="M0 0L10 5L0 10Z" fill="#2563eb"/>
    </marker>
    <marker id="arrow-slate" markerWidth="10" markerHeight="10" refX="8" refY="5" orient="auto">
      <path d="M0 0L10 5L0 10Z" fill="#64748b"/>
    </marker>
  </defs>

  <rect width="1600" height="1000" fill="#f8fafc"/>

  <g font-family="Pretendard, Apple SD Gothic Neo, Noto Sans KR, sans-serif">
    <text x="70" y="58" fill="#0f172a" font-size="31" font-weight="750">VA-MCP 아키텍처</text>
    <text x="70" y="91" fill="#475569" font-size="18">AI-Native 개발 플로우에 OWASP Top 10 기반 API 보안점검을 연결</text>

    <g filter="url(#shadow)">
      <rect x="70" y="125" width="1460" height="126" rx="18" fill="#ffffff" stroke="#dbe4ee"/>
    </g>
    <text x="96" y="157" fill="#64748b" font-size="14" font-weight="700" letter-spacing="1.5">AI-NATIVE DEVELOPMENT FLOW</text>

    <g>
      <rect x="96" y="176" width="270" height="52" rx="12" fill="#f1f5f9" stroke="#cbd5e1"/>
      <circle cx="123" cy="202" r="15" fill="#64748b"/>
      <text x="123" y="207" fill="#ffffff" font-size="13" font-weight="700" text-anchor="middle">1</text>
      <text x="148" y="208" fill="#1e293b" font-size="18" font-weight="700">기획·문서화</text>
      <path d="M376 202H414" stroke="#94a3b8" stroke-width="2" marker-end="url(#arrow-slate)"/>

      <rect x="426" y="176" width="235" height="52" rx="12" fill="#f1f5f9" stroke="#cbd5e1"/>
      <circle cx="453" cy="202" r="15" fill="#64748b"/>
      <text x="453" y="207" fill="#ffffff" font-size="13" font-weight="700" text-anchor="middle">2</text>
      <text x="478" y="208" fill="#1e293b" font-size="18" font-weight="700">구현</text>
      <path d="M671 202H709" stroke="#94a3b8" stroke-width="2" marker-end="url(#arrow-slate)"/>

      <rect x="721" y="176" width="235" height="52" rx="12" fill="#f1f5f9" stroke="#cbd5e1"/>
      <circle cx="748" cy="202" r="15" fill="#64748b"/>
      <text x="748" y="207" fill="#ffffff" font-size="13" font-weight="700" text-anchor="middle">3</text>
      <text x="773" y="208" fill="#1e293b" font-size="18" font-weight="700">기능 테스트</text>
      <path d="M966 202H1004" stroke="#2563eb" stroke-width="3" marker-end="url(#arrow-blue)"/>

      <rect x="1016" y="168" width="488" height="68" rx="14" fill="#eff6ff" stroke="#2563eb" stroke-width="2"/>
      <circle cx="1048" cy="202" r="17" fill="#2563eb"/>
      <text x="1048" y="208" fill="#ffffff" font-size="14" font-weight="700" text-anchor="middle">4</text>
      <text x="1078" y="196" fill="#1d4ed8" font-size="19" font-weight="750">MCP 보안점검 추가</text>
      <text x="1078" y="219" fill="#475569" font-size="14">엔드포인트 맥락에 맞춰 OWASP 점검 수행</text>
    </g>

    <g filter="url(#shadow)">
      <rect x="70" y="294" width="330" height="616" rx="18" fill="#ffffff" stroke="#dbe4ee"/>
      <rect x="430" y="294" width="620" height="616" rx="18" fill="#ffffff" stroke="#bfdbfe"/>
      <rect x="1080" y="294" width="450" height="616" rx="18" fill="#ffffff" stroke="#dbe4ee"/>
    </g>

    <rect x="70" y="294" width="330" height="55" rx="18" fill="#eef2ff"/>
    <path d="M70 331V349H400V331" fill="#eef2ff"/>
    <text x="96" y="329" fill="#3730a3" font-size="16" font-weight="750">01 · CLIENT &amp; MCP ADAPTER</text>

    <rect x="96" y="382" width="278" height="92" rx="14" fill="#f8fafc" stroke="#cbd5e1"/>
    <text x="235" y="416" fill="#0f172a" font-size="20" font-weight="750" text-anchor="middle">AI Agent</text>
    <text x="235" y="443" fill="#64748b" font-size="14" text-anchor="middle">Cursor · Claude Desktop</text>
    <path d="M235 474V510" stroke="#64748b" stroke-width="2.5" marker-end="url(#arrow-slate)"/>

    <rect x="96" y="522" width="278" height="94" rx="14" fill="#eef2ff" stroke="#818cf8"/>
    <text x="235" y="557" fill="#3730a3" font-size="19" font-weight="750" text-anchor="middle">MCP Adapter</text>
    <text x="235" y="583" fill="#475569" font-size="14" text-anchor="middle">analyze_endpoint 호출</text>

    <text x="96" y="668" fill="#64748b" font-size="13" font-weight="700" letter-spacing="1">전달하는 엔드포인트 맥락</text>
    <g fill="#f8fafc" stroke="#cbd5e1">
      <rect x="96" y="687" width="126" height="38" rx="19"/><rect x="232" y="687" width="142" height="38" rx="19"/>
      <rect x="96" y="736" width="126" height="38" rx="19"/><rect x="232" y="736" width="142" height="38" rx="19"/>
      <rect x="96" y="785" width="278" height="38" rx="19"/>
    </g>
    <g fill="#334155" font-size="14" text-anchor="middle">
      <text x="159" y="712">Method · Path</text><text x="303" y="712">Body · Query</text>
      <text x="159" y="761">인증 정보</text><text x="303" y="761">권한 · 역할</text>
      <text x="235" y="810">리소스 소유관계 · 상태 변화</text>
    </g>

    <path d="M400 569H444" stroke="#2563eb" stroke-width="3" marker-end="url(#arrow-blue)"/>

    <rect x="430" y="294" width="620" height="55" rx="18" fill="#eff6ff"/>
    <path d="M430 331V349H1050V331" fill="#eff6ff"/>
    <text x="456" y="329" fill="#1d4ed8" font-size="16" font-weight="750">02 · CORE ENGINE</text>
    <text x="1024" y="329" fill="#64748b" font-size="13" text-anchor="end">MCP와 독립된 모듈형 분석 엔진</text>

    <g>
      <rect x="456" y="382" width="568" height="78" rx="13" fill="#f8fafc" stroke="#cbd5e1"/>
      <rect x="456" y="382" width="8" height="78" rx="4" fill="#64748b"/>
      <text x="484" y="412" fill="#0f172a" font-size="18" font-weight="750">EndpointProfile</text>
      <text x="484" y="437" fill="#64748b" font-size="14">입력 파싱 · 정규화 · 검증 → 공통 데이터 구조</text>
      <path d="M740 460V488" stroke="#2563eb" stroke-width="2.5" marker-end="url(#arrow-blue)"/>

      <rect x="456" y="500" width="568" height="78" rx="13" fill="#f8fafc" stroke="#93c5fd"/>
      <rect x="456" y="500" width="8" height="78" rx="4" fill="#3b82f6"/>
      <text x="484" y="530" fill="#0f172a" font-size="18" font-weight="750">FeatureExtractor</text>
      <text x="484" y="555" fill="#64748b" font-size="14">입력 · 인증 · 권한 · 상태 변화 특징 추출</text>
      <path d="M740 578V606" stroke="#2563eb" stroke-width="2.5" marker-end="url(#arrow-blue)"/>

      <rect x="456" y="618" width="568" height="98" rx="13" fill="#eff6ff" stroke="#60a5fa" stroke-width="1.5"/>
      <rect x="456" y="618" width="8" height="98" rx="4" fill="#2563eb"/>
      <text x="484" y="648" fill="#1d4ed8" font-size="18" font-weight="750">ScenarioPlanner</text>
      <text x="484" y="674" fill="#334155" font-size="14">OWASP 후보와 필요한 도구만 선택</text>
      <text x="484" y="697" fill="#64748b" font-size="13">입력이 부족하면 실행 전 need_more_context 반환</text>
      <path d="M740 716V744" stroke="#2563eb" stroke-width="2.5" marker-end="url(#arrow-blue)"/>

      <rect x="456" y="756" width="270" height="104" rx="13" fill="#f8fafc" stroke="#cbd5e1"/>
      <text x="591" y="790" fill="#0f172a" font-size="17" font-weight="750" text-anchor="middle">ScenarioRunner</text>
      <text x="591" y="816" fill="#64748b" font-size="13" text-anchor="middle">OWASP 시나리오별 실행</text>
      <text x="591" y="838" fill="#64748b" font-size="13" text-anchor="middle">결과 집계</text>
      <path d="M726 808H754" stroke="#2563eb" stroke-width="2.5" marker-end="url(#arrow-blue)"/>

      <rect x="766" y="756" width="258" height="104" rx="13" fill="#f8fafc" stroke="#cbd5e1"/>
      <text x="895" y="790" fill="#0f172a" font-size="17" font-weight="750" text-anchor="middle">Orchestrator</text>
      <text x="895" y="816" fill="#64748b" font-size="13" text-anchor="middle">도구 실행 · 인증 컨텍스트</text>
      <text x="895" y="838" fill="#64748b" font-size="13" text-anchor="middle">결과 수집 · 실패 격리</text>
    </g>

    <path d="M1050 808H1094" stroke="#2563eb" stroke-width="3" marker-end="url(#arrow-blue)"/>
    <rect x="1080" y="294" width="450" height="55" rx="18" fill="#ecfdf5"/>
    <path d="M1080 331V349H1530V331" fill="#ecfdf5"/>
    <text x="1106" y="329" fill="#047857" font-size="16" font-weight="750">03 · CONTEXT-AWARE EXECUTION</text>

    <text x="1106" y="390" fill="#0f172a" font-size="18" font-weight="750">모든 도구를 실행하지 않습니다</text>
    <text x="1106" y="416" fill="#64748b" font-size="14">엔드포인트의 특징과 맥락에 맞는 도구만 선택</text>

    <g>
      <rect x="1106" y="449" width="398" height="64" rx="12" fill="#fff7ed" stroke="#fdba74"/>
      <circle cx="1134" cy="481" r="13" fill="#f97316"/>
      <text x="1134" y="486" fill="#fff" font-size="12" font-weight="700" text-anchor="middle">A</text>
      <text x="1160" y="475" fill="#9a3412" font-size="15" font-weight="750">로그인·토큰 API</text>
      <text x="1160" y="496" fill="#7c2d12" font-size="13">인증 · 세션 · JWT 점검</text>

      <rect x="1106" y="526" width="398" height="64" rx="12" fill="#f5f3ff" stroke="#c4b5fd"/>
      <circle cx="1134" cy="558" r="13" fill="#7c3aed"/>
      <text x="1134" y="563" fill="#fff" font-size="12" font-weight="700" text-anchor="middle">B</text>
      <text x="1160" y="552" fill="#5b21b6" font-size="15" font-weight="750">리소스 ID + 다중 권한</text>
      <text x="1160" y="573" fill="#5b21b6" font-size="13">IDOR · BOLA · BFLA · RBAC 점검</text>

      <rect x="1106" y="603" width="398" height="64" rx="12" fill="#ecfeff" stroke="#67e8f9"/>
      <circle cx="1134" cy="635" r="13" fill="#0891b2"/>
      <text x="1134" y="640" fill="#fff" font-size="12" font-weight="700" text-anchor="middle">C</text>
      <text x="1160" y="629" fill="#155e75" font-size="15" font-weight="750">사용자 입력이 있는 API</text>
      <text x="1160" y="650" fill="#155e75" font-size="13">SQLi · XSS · SSTI 등 Injection 점검</text>
    </g>

    <path d="M1305 667V703" stroke="#059669" stroke-width="2.5" marker-end="url(#arrow-slate)"/>
    <rect x="1106" y="715" width="187" height="78" rx="12" fill="#f0fdf4" stroke="#86efac"/>
    <text x="1199" y="747" fill="#166534" font-size="16" font-weight="750" text-anchor="middle">Python Tools</text>
    <text x="1199" y="771" fill="#475569" font-size="13" text-anchor="middle">실제 HTTP 요청</text>
    <path d="M1293 754H1317" stroke="#059669" stroke-width="2.5" marker-end="url(#arrow-slate)"/>
    <rect x="1329" y="715" width="175" height="78" rx="12" fill="#fff7ed" stroke="#fdba74"/>
    <text x="1416" y="747" fill="#9a3412" font-size="16" font-weight="750" text-anchor="middle">Target API</text>
    <text x="1416" y="771" fill="#475569" font-size="13" text-anchor="middle">제한된 점검 요청</text>

    <rect x="1106" y="824" width="398" height="60" rx="12" fill="#f8fafc" stroke="#cbd5e1"/>
    <text x="1305" y="849" fill="#0f172a" font-size="15" font-weight="750" text-anchor="middle">ScenarioResult → EndpointReport</text>
    <text x="1305" y="870" fill="#64748b" font-size="13" text-anchor="middle">MCP 응답 · Markdown · JSON 보고서</text>
    <path d="M1416 793V813H1305V824" fill="none" stroke="#64748b" stroke-width="2" marker-end="url(#arrow-slate)"/>

    <text x="70" y="958" fill="#64748b" font-size="14">설계 기준: VA-MCP V3.1 및 현재 구현 코드 · 각 모듈의 책임을 분리해 독립적인 개선과 교체가 가능하도록 구성</text>
  </g>
</svg>
